{"title":"Wild Beasts - Present Tense (2014) [FLAC]","uid":9685233,"size":258254244,"categoryP":"audio","categoryS":"flac","magnet":"?xt=urn:btih:3cb02d3797e0686c484bf30ede0a62a7ae7d0c81&amp;dn=Wild+Beasts+-+Present+Tense+%282014%29+%5BFLAC%5D&amp;tr=udp%3A%2F%2Ftracker.openbittorrent.com%3A80&amp;tr=udp%3A%2F%2Fopen.demonii.com%3A1337&amp;tr=udp%3A%2F%2Ftracker.coppersurfer.tk%3A6969&amp;tr=udp%3A%2F%2Fexodus.desync.com%3A6969","seeders":1,"leechers":8,"uploader":"kabbs","files":15,"time":1393751326,"description":"Wild Beasts / Present Tense\n\nGenre : Indie Rock \nMedia : CD  \nYear : 2014 \nPublisher (label) : Domino Recording Co. \nCatalog Number : WIGCD279 \nCountry : UK \nAudio Codec : FLAC (*. flac) \nRip type : tracks +. cue \nBitrate : lossless \nDuration : 40:59 \n\nTracklist : \n01. Wanderlust \n02. Nature Boy \n03. Mecca \n04. Sweet Spot \n05. Daughters \n06. Pregnant Pause \n07. A Simple Beautiful Truth \n08. A Dog's Life \n09. Past Perfect \n10. New Life \n11. Palace \n\n----------------------------\n\nExact Audio Copy V1.0 beta 3 from 29. August 2011\n\nEAC extraction logfile from 2. March 2014, 15:49\n\nWild Beasts / Present Tense\n\nUsed drive  : HL-DT-STDVDRAM GH22LS50   Adapter: 0  ID: 0\n\nRead mode               : Secure\nUtilize accurate stream : Yes\nDefeat audio cache      : No\nMake use of C2 pointers : No\n\nRead offset correction                      : 0\nOverread into Lead-In and Lead-Out          : No\nFill up missing offset samples with silence : Yes\nDelete leading and trailing silent blocks   : No\nNull samples used in CRC calculations       : Yes\nUsed interface                              : Native Win32 interface for Win NT &amp; 2000\n\nUsed output format : Internal WAV Routines\nSample format      : 44.100 Hz; 16 Bit; Stereo\n\n\nTOC of the extracted CD\n\n     Track |   Start  |  Length  | Start sector | End sector \n    ---------------------------------------------------------\n        1  |  0:00.00 |  4:54.50 |         0    |    22099   \n        2  |  4:54.50 |  3:33.04 |     22100    |    38078   \n        3  |  8:27.54 |  3:44.45 |     38079    |    54923   \n        4  | 12:12.24 |  3:59.31 |     54924    |    72879   \n        5  | 16:11.55 |  4:46.66 |     72880    |    94395   \n        6  | 20:58.46 |  3:09.02 |     94396    |   108572   \n        7  | 24:07.48 |  2:35.73 |    108573    |   120270   \n        8  | 26:43.46 |  3:21.02 |    120271    |   135347   \n        9  | 30:04.48 |  2:57.30 |    135348    |   148652   \n       10  | 33:02.03 |  4:37.15 |    148653    |   169442   \n       11  | 37:39.18 |  3:20.06 |    169443    |   184448   \n\n\nRange status and errors\n\nSelected range\n\n     Filename E:WAVCUEWild Beasts - Present Tense.wav\n\n     Peak level 100.0 %\n     Extraction speed 2.5 X\n     Range quality 100.0 %\n     Copy CRC F153EB0A\n     Copy OK\n\nNo errors occurred\n\nEnd of status report\n\n==== Log checksum 3478D4CB133F766DE553848A8D38EE426C6682D9EDE7682D5CCBA35AA2ECD880 ====\n","torrent":{"xt":"urn:btih:3cb02d3797e0686c484bf30ede0a62a7ae7d0c81","amp;dn":"Wild+Beasts+-+Present+Tense+%282014%29+%5BFLAC%5D","amp;tr":["udp%3A%2F%2Ftracker.openbittorrent.com%3A80","udp%3A%2F%2Fopen.demonii.com%3A1337","udp%3A%2F%2Ftracker.coppersurfer.tk%3A6969","udp%3A%2F%2Fexodus.desync.com%3A6969"],"infoHash":"3cb02d3797e0686c484bf30ede0a62a7ae7d0c81","infoHashBuffer":{"type":"Buffer","data":[60,176,45,55,151,224,104,108,72,75,243,14,222,10,98,167,174,125,12,129]},"announce":[],"urlList":[]}}